<svg id="Capa_1" enable-background="new 0 0 512 512" height="512" viewBox="0 0 512 512" width="512" xmlns="http://www.w3.org/2000/svg"><g><g><path d="m493.438 52.773h-274.66c-10.252 0-18.562 8.315-18.562 18.572v100.168h103.007c10.251 0 18.561 8.315 18.561 18.572v112.19h54.419l28.199 28.214 28.199-28.214h60.836c10.251 0 18.562-8.315 18.562-18.572v-212.359c.001-10.257-8.309-18.571-18.561-18.571z" fill="#b2f0fb"/></g><g fill="#020288"><path d="m303.223 161.513h-274.661c-15.749 0-28.562 12.817-28.562 28.571v212.358c0 15.754 12.813 28.571 28.562 28.571h56.693l25.27 25.283c1.875 1.876 4.42 2.931 7.073 2.931s5.197-1.055 7.073-2.931l25.269-25.283h153.283c15.749 0 28.562-12.817 28.562-28.571v-212.358c-.001-15.754-12.813-28.571-28.562-28.571zm8.561 240.929c0 4.727-3.841 8.571-8.562 8.571h-157.426c-2.653 0-5.197 1.055-7.073 2.931l-21.126 21.138-21.127-21.138c-1.875-1.876-4.419-2.931-7.073-2.931h-60.835c-4.721 0-8.562-3.845-8.562-8.571v-212.358c0-4.727 3.841-8.571 8.562-8.571h274.661c4.721 0 8.562 3.845 8.562 8.571v212.358z"/><path d="m233.081 220.627c-3.113-.667-76.694-15.948-114.466 21.849-34.248 34.27-24.886 97.996-22.345 111.903l-6.04 6.285c-3.827 3.982-3.702 10.313.28 14.14 1.939 1.864 4.436 2.79 6.928 2.79 2.626 0 5.248-1.028 7.211-3.07l8.075-8.402c6.859 1.01 17.392 2.173 29.537 2.173 24.685 0 56.023-4.806 76.665-25.459v-.001c37.769-37.793 22.5-111.411 21.831-114.526-.824-3.85-3.829-6.855-7.676-7.682zm-28.301 108.068c-19.114 19.126-52.528 20.628-74.491 19.15l24.167-25.145h26.365c5.523 0 10-4.478 10-10s-4.477-10-10-10h-7.143l20.412-21.238c3.827-3.982 3.701-10.313-.28-14.14-3.982-3.827-10.313-3.699-14.14.28l-20.933 21.78v-8.787c0-5.523-4.477-10-10-10s-10 4.477-10 10v29.596l-24.737 25.738c-1.982-21.624-1.797-58.746 18.761-79.318 24.412-24.429 72.152-20.106 89.568-17.545 2.582 17.42 6.944 65.12-17.549 89.629z"/></g></g></svg>