<svg id="Capa_1" enable-background="new 0 0 512 512" height="512" viewBox="0 0 512 512" width="512" xmlns="http://www.w3.org/2000/svg"><g><g><path d="m74.723 41.95h101.872v47.12h-101.872z" fill="#ffbdbc" transform="matrix(.707 -.707 .707 .707 -9.518 108.042)"/><g><g><path d="m128.012 194.064h255.977v257.936h-255.977z" fill="#ffbdbc"/></g></g></g><g fill="#020288"><path d="m409.542 0h-193.916c-2.652 0-5.196 1.054-7.071 2.929l-137.615 137.614c-1.875 1.876-2.929 4.419-2.929 7.071v329.939c0 18.994 15.453 34.446 34.446 34.446h307.084c18.994 0 34.446-15.452 34.446-34.446v-443.107c.001-18.994-15.451-34.446-34.445-34.446zm14.446 477.554c0 7.966-6.48 14.446-14.446 14.446h-307.084c-7.966 0-14.446-6.48-14.446-14.446v-325.797l131.756-131.757h189.774c7.966 0 14.446 6.48 14.446 14.446z"/><path d="m363.988 70h-99.367c-2.652 0-5.196 1.054-7.071 2.929l-49.724 49.724c-2.86 2.86-3.715 7.161-2.167 10.898 1.548 3.736 5.194 6.173 9.239 6.173h149.091c5.523 0 10-4.478 10-10v-49.724c-.001-5.522-4.478-10-10.001-10zm-10 49.724h-114.948l29.723-29.724h85.225z"/><path d="m261.43 231.326c-3.305-2.137-7.555-2.137-10.859 0-2.567 1.659-62.868 41.238-62.868 92.588s60.301 90.929 62.868 92.589c1.652 1.068 3.541 1.603 5.43 1.603s3.777-.534 5.43-1.603c2.567-1.66 62.868-41.239 62.868-92.589s-60.302-90.929-62.869-92.588zm4.57 156.485v-41.332l18.779-18.781c3.905-3.905 3.905-10.236-.001-14.142-3.905-3.906-10.238-3.905-14.142.001l-4.636 4.637v-18.789c0-5.522-4.477-10-10-10s-10 4.478-10 10v18.789l-4.636-4.637c-3.904-3.905-10.236-3.904-14.142-.001-3.905 3.905-3.906 10.236 0 14.142l18.778 18.781v41.369c-15.876-13.646-38.298-37.584-38.298-63.934 0-32.642 34.663-61.747 48.307-71.938 13.658 10.17 48.289 39.191 48.289 71.938 0 26.253-22.422 50.219-38.298 63.897z"/></g></g></svg>