<svg id="Capa_1" enable-background="new 0 0 512 512" height="512" viewBox="0 0 512 512" width="512" xmlns="http://www.w3.org/2000/svg"><g><g fill="#020288"><path d="m509.239 262.899c3.682-3.863 3.682-9.936 0-13.799l-25.632-26.894c-8.704-9.132-11.7-22.262-7.818-34.265l11.408-35.283c1.643-5.082-.997-10.558-5.996-12.437l-34.883-13.115c-11.803-4.438-20.208-14.953-21.936-27.443l-5.084-36.736c-.73-5.274-5.465-9.056-10.767-8.592l-37.266 3.222c-12.507 1.08-24.592-4.736-31.549-15.182l-20.656-31.015c-2.948-4.429-8.85-5.771-13.425-3.058l-32.109 19.049c-10.81 6.412-24.241 6.413-35.051 0l-32.11-19.049c-4.576-2.714-10.477-1.37-13.425 3.058l-20.654 31.016c-6.956 10.446-19.042 16.268-31.549 15.182l-37.266-3.222c-5.298-.46-10.037 3.319-10.767 8.592l-5.084 36.736c-1.728 12.49-10.134 23.005-21.936 27.442l-34.884 13.116c-4.998 1.879-7.639 7.355-5.996 12.437l11.407 35.284c3.881 12.003.885 25.133-7.818 34.265l-25.632 26.892c-3.682 3.863-3.682 9.936 0 13.799l25.632 26.894c8.704 9.132 11.7 22.261 7.818 34.264l-11.407 35.283c-1.643 5.082.997 10.558 5.996 12.437l34.883 13.115c11.803 4.438 20.209 14.953 21.937 27.443l5.083 36.736c.73 5.273 5.462 9.048 10.767 8.592l37.266-3.222c12.507-1.08 24.592 4.736 31.549 15.182l20.655 31.017c1.919 2.883 5.09 4.458 8.331 4.458 1.738 0 3.497-.453 5.094-1.4l32.109-19.049c10.809-6.413 24.24-6.414 35.051.001l32.109 19.049c4.577 2.715 10.477 1.37 13.425-3.058l20.654-31.016c6.957-10.446 19.044-16.268 31.549-15.183l37.266 3.222c5.304.462 10.038-3.319 10.767-8.592l5.083-36.736c1.728-12.49 10.134-23.005 21.936-27.442l34.884-13.116c4.999-1.879 7.639-7.355 5.996-12.436l-11.408-35.283c-3.881-12.004-.885-25.133 7.818-34.265zm-40.11 13.095c-13.771 14.449-18.511 35.224-12.371 54.216l8.473 26.205-25.953 9.758c-18.675 7.021-31.975 23.659-34.709 43.422l-3.781 27.325-27.801-2.404c-19.784-1.712-38.911 7.494-49.918 24.023l-15.393 23.115-23.945-14.205c-8.554-5.075-18.14-7.611-27.73-7.611-9.588 0-19.179 2.538-27.73 7.611l-23.945 14.206-15.393-23.116c-11.006-16.527-30.132-25.731-49.918-24.022l-27.801 2.404-3.781-27.325c-2.735-19.762-16.035-36.4-34.71-43.422l-25.952-9.757 8.472-26.204c6.141-18.993 1.4-39.767-12.371-54.216l-19.058-19.997 19.057-19.994c13.771-14.449 18.511-35.224 12.371-54.216l-8.472-26.205 25.953-9.758c18.675-7.021 31.975-23.659 34.709-43.422l3.781-27.325 27.801 2.404c19.781 1.713 38.912-7.494 49.918-24.022l15.393-23.115 23.945 14.205c17.105 10.148 38.356 10.148 55.461 0l23.945-14.206 15.393 23.116c11.007 16.527 30.133 25.734 49.918 24.022l27.801-2.404 3.781 27.325c2.735 19.762 16.035 36.4 34.71 43.422l25.952 9.757-8.472 26.204c-6.141 18.993-1.4 39.767 12.371 54.217l19.055 19.995z"/><path d="m256 74.149c-100.273 0-181.851 81.578-181.851 181.851s81.578 181.851 181.851 181.851 181.851-81.578 181.851-181.851-81.578-181.851-181.851-181.851zm0 343.702c-89.245 0-161.851-72.606-161.851-161.851s72.606-161.851 161.851-161.851 161.851 72.606 161.851 161.851-72.606 161.851-161.851 161.851z"/></g><g><path d="m274.216 234.472 7.741-104.445-100.729 147.231h68.449l-14.172 104.715 95.267-149.593z" fill="#fff59b"/></g></g></svg>